<svg width="117" height="27" viewBox="0 0 117 27" fill="none" xmlns="http://www.w3.org/2000/svg">
<path d="M25.0568 17V8.27273H30.3239V9.21023H26.1136V12.1591H30.0511V13.0966H26.1136V16.0625H30.392V17H25.0568ZM33.098 13.0625V17H32.0923V10.4545H33.0639V11.4773H33.1491C33.3026 11.1449 33.5355 10.8778 33.848 10.6761C34.1605 10.4716 34.5639 10.3693 35.0582 10.3693C35.5014 10.3693 35.8892 10.4602 36.2216 10.642C36.554 10.821 36.8125 11.0938 36.9972 11.4602C37.1818 11.8239 37.2741 12.2841 37.2741 12.8409V17H36.2685V12.9091C36.2685 12.3949 36.1349 11.9943 35.8679 11.7074C35.6009 11.4176 35.2344 11.2727 34.7685 11.2727C34.4474 11.2727 34.1605 11.3423 33.9077 11.4815C33.6577 11.6207 33.4602 11.8239 33.3153 12.0909C33.1705 12.358 33.098 12.6818 33.098 13.0625ZM39.1119 17V10.4545H40.1175V17H39.1119ZM39.6232 9.36364C39.4272 9.36364 39.2582 9.29688 39.1161 9.16335C38.9769 9.02983 38.9073 8.86932 38.9073 8.68182C38.9073 8.49432 38.9769 8.33381 39.1161 8.20028C39.2582 8.06676 39.4272 8 39.6232 8C39.8192 8 39.9869 8.06676 40.1261 8.20028C40.2681 8.33381 40.3391 8.49432 40.3391 8.68182C40.3391 8.86932 40.2681 9.02983 40.1261 9.16335C39.9869 9.29688 39.8192 9.36364 39.6232 9.36364ZM44.6016 19.5909C44.1158 19.5909 43.6982 19.5284 43.3487 19.4034C42.9993 19.2812 42.7081 19.1193 42.4751 18.9176C42.245 18.7188 42.0618 18.5057 41.9254 18.2784L42.7266 17.7159C42.8175 17.8352 42.9325 17.9716 43.0717 18.125C43.2109 18.2812 43.4013 18.4162 43.6428 18.5298C43.8871 18.6463 44.2067 18.7045 44.6016 18.7045C45.13 18.7045 45.5661 18.5767 45.9098 18.321C46.2536 18.0653 46.4254 17.6648 46.4254 17.1193V15.7898H46.3402C46.2663 15.9091 46.1612 16.0568 46.0249 16.233C45.8913 16.4062 45.6982 16.5611 45.4453 16.6974C45.1953 16.831 44.8572 16.8977 44.4311 16.8977C43.9027 16.8977 43.4283 16.7727 43.0078 16.5227C42.5902 16.2727 42.2592 15.9091 42.0149 15.4318C41.7734 14.9545 41.6527 14.375 41.6527 13.6932C41.6527 13.0227 41.7706 12.4389 42.0064 11.9418C42.2422 11.4418 42.5703 11.0554 42.9908 10.7827C43.4112 10.5071 43.897 10.3693 44.4482 10.3693C44.8743 10.3693 45.2124 10.4403 45.4624 10.5824C45.7152 10.7216 45.9084 10.8807 46.0419 11.0597C46.1783 11.2358 46.2834 11.3807 46.3572 11.4943H46.4595V10.4545H47.4311V17.1875C47.4311 17.75 47.3033 18.2074 47.0476 18.5597C46.7947 18.9148 46.4538 19.1747 46.0249 19.3395C45.5987 19.5071 45.1243 19.5909 44.6016 19.5909ZM44.5675 15.9943C44.9709 15.9943 45.3118 15.902 45.5902 15.7173C45.8686 15.5327 46.0803 15.267 46.2251 14.9205C46.37 14.5739 46.4425 14.1591 46.4425 13.6761C46.4425 13.2045 46.3714 12.7884 46.2294 12.4276C46.0874 12.0668 45.8771 11.7841 45.5987 11.5795C45.3203 11.375 44.9766 11.2727 44.5675 11.2727C44.1413 11.2727 43.7862 11.3807 43.5021 11.5966C43.2209 11.8125 43.0092 12.1023 42.8672 12.4659C42.728 12.8295 42.6584 13.233 42.6584 13.6761C42.6584 14.1307 42.7294 14.5327 42.8714 14.8821C43.0163 15.2287 43.2294 15.5014 43.5107 15.7003C43.7947 15.8963 44.147 15.9943 44.5675 15.9943ZM49.272 17V10.4545H50.2436V11.4773H50.3288C50.4652 11.1278 50.6854 10.8565 50.9893 10.6634C51.2933 10.4673 51.6584 10.3693 52.0845 10.3693C52.5163 10.3693 52.8757 10.4673 53.1626 10.6634C53.4524 10.8565 53.6783 11.1278 53.8402 11.4773H53.9084C54.076 11.1392 54.3274 10.8707 54.6626 10.6719C54.9979 10.4702 55.3999 10.3693 55.8686 10.3693C56.4538 10.3693 56.9325 10.5526 57.3047 10.919C57.6768 11.2827 57.8629 11.8494 57.8629 12.6193V17H56.8572V12.6193C56.8572 12.1364 56.7251 11.7912 56.4609 11.5838C56.1967 11.3764 55.8857 11.2727 55.5277 11.2727C55.0675 11.2727 54.7109 11.4119 54.4581 11.6903C54.2053 11.9659 54.0788 12.3153 54.0788 12.7386V17H53.0561V12.517C53.0561 12.1449 52.9354 11.8452 52.6939 11.6179C52.4524 11.3878 52.1413 11.2727 51.7607 11.2727C51.4993 11.2727 51.255 11.3423 51.0277 11.4815C50.8033 11.6207 50.6214 11.8139 50.4822 12.0611C50.3459 12.3054 50.2777 12.5881 50.2777 12.9091V17H49.272ZM61.6278 17.1534C61.2131 17.1534 60.8366 17.0753 60.4986 16.919C60.1605 16.7599 59.892 16.5312 59.6932 16.233C59.4943 15.9318 59.3949 15.5682 59.3949 15.142C59.3949 14.767 59.4688 14.4631 59.6165 14.2301C59.7642 13.9943 59.9616 13.8097 60.2088 13.6761C60.456 13.5426 60.7287 13.4432 61.027 13.3778C61.3281 13.3097 61.6307 13.2557 61.9347 13.2159C62.3324 13.1648 62.6548 13.1264 62.902 13.1009C63.152 13.0724 63.3338 13.0256 63.4474 12.9602C63.5639 12.8949 63.6222 12.7812 63.6222 12.6193V12.5852C63.6222 12.1648 63.5071 11.8381 63.277 11.6051C63.0497 11.3722 62.7045 11.2557 62.2415 11.2557C61.7614 11.2557 61.3849 11.3608 61.1122 11.571C60.8395 11.7812 60.6477 12.0057 60.5369 12.2443L59.5824 11.9034C59.7528 11.5057 59.9801 11.196 60.2642 10.9744C60.5511 10.75 60.8636 10.5937 61.2017 10.5057C61.5426 10.4148 61.8778 10.3693 62.2074 10.3693C62.4176 10.3693 62.6591 10.3949 62.9318 10.446C63.2074 10.4943 63.473 10.5952 63.7287 10.7486C63.9872 10.902 64.2017 11.1335 64.3722 11.4432C64.5426 11.7528 64.6278 12.1676 64.6278 12.6875V17H63.6222V16.1136H63.571C63.5028 16.2557 63.3892 16.4077 63.2301 16.5696C63.071 16.7315 62.8594 16.8693 62.5952 16.983C62.331 17.0966 62.0085 17.1534 61.6278 17.1534ZM61.7812 16.25C62.179 16.25 62.5142 16.1719 62.7869 16.0156C63.0625 15.8594 63.2699 15.6577 63.4091 15.4105C63.5511 15.1634 63.6222 14.9034 63.6222 14.6307V13.7102C63.5795 13.7614 63.4858 13.8082 63.3409 13.8509C63.1989 13.8906 63.0341 13.9261 62.8466 13.9574C62.6619 13.9858 62.4815 14.0114 62.3054 14.0341C62.1321 14.054 61.9915 14.071 61.8835 14.0852C61.6222 14.1193 61.3778 14.1747 61.1506 14.2514C60.9261 14.3253 60.7443 14.4375 60.6051 14.5881C60.4688 14.7358 60.4006 14.9375 60.4006 15.1932C60.4006 15.5426 60.5298 15.8068 60.7884 15.9858C61.0497 16.1619 61.3807 16.25 61.7812 16.25Z" fill="white"/>
<path d="M73.6225 11H72.5657C72.5032 10.696 72.3938 10.429 72.2376 10.1989C72.0842 9.96875 71.8967 9.77557 71.6751 9.61932C71.4563 9.46023 71.2134 9.34091 70.9464 9.26136C70.6793 9.18182 70.4009 9.14205 70.1112 9.14205C69.5827 9.14205 69.104 9.27557 68.6751 9.54261C68.2489 9.80966 67.9094 10.2031 67.6566 10.723C67.4066 11.2429 67.2816 11.8807 67.2816 12.6364C67.2816 13.392 67.4066 14.0298 67.6566 14.5497C67.9094 15.0696 68.2489 15.4631 68.6751 15.7301C69.104 15.9972 69.5827 16.1307 70.1112 16.1307C70.4009 16.1307 70.6793 16.0909 70.9464 16.0114C71.2134 15.9318 71.4563 15.8139 71.6751 15.6577C71.8967 15.4986 72.0842 15.304 72.2376 15.0739C72.3938 14.8409 72.5032 14.5739 72.5657 14.2727H73.6225C73.543 14.7187 73.3981 15.1179 73.1879 15.4702C72.9776 15.8224 72.7163 16.1222 72.4038 16.3693C72.0913 16.6136 71.7404 16.7997 71.3512 16.9276C70.9648 17.0554 70.5515 17.1193 70.1112 17.1193C69.3668 17.1193 68.7049 16.9375 68.1254 16.5739C67.5458 16.2102 67.0898 15.6932 66.7575 15.0227C66.4251 14.3523 66.2589 13.5568 66.2589 12.6364C66.2589 11.7159 66.4251 10.9205 66.7575 10.25C67.0898 9.57955 67.5458 9.0625 68.1254 8.69886C68.7049 8.33523 69.3668 8.15341 70.1112 8.15341C70.5515 8.15341 70.9648 8.21733 71.3512 8.34517C71.7404 8.47301 72.0913 8.66051 72.4038 8.90767C72.7163 9.15199 72.9776 9.45028 73.1879 9.80256C73.3981 10.152 73.543 10.5511 73.6225 11ZM76.1996 8.27273V17H75.1939V8.27273H76.1996ZM82.1665 14.3239V10.4545H83.1722V17H82.1665V15.892H82.0984C81.945 16.2244 81.7063 16.5071 81.3825 16.7401C81.0586 16.9702 80.6495 17.0852 80.1552 17.0852C79.7461 17.0852 79.3825 16.9957 79.0643 16.8168C78.7461 16.6349 78.4961 16.3622 78.3143 15.9986C78.1325 15.6321 78.0415 15.1705 78.0415 14.6136V10.4545H79.0472V14.5455C79.0472 15.0227 79.1808 15.4034 79.4478 15.6875C79.7177 15.9716 80.0614 16.1136 80.479 16.1136C80.729 16.1136 80.9833 16.0497 81.2418 15.9219C81.5032 15.794 81.7219 15.598 81.8981 15.3338C82.0771 15.0696 82.1665 14.733 82.1665 14.3239ZM85.1506 17V8.27273H86.1562V11.4943H86.2415C86.3153 11.3807 86.4176 11.2358 86.5483 11.0597C86.6818 10.8807 86.8722 10.7216 87.1193 10.5824C87.3693 10.4403 87.7074 10.3693 88.1335 10.3693C88.6847 10.3693 89.1705 10.5071 89.5909 10.7827C90.0114 11.0582 90.3395 11.4489 90.5753 11.9545C90.8111 12.4602 90.929 13.0568 90.929 13.7443C90.929 14.4375 90.8111 15.0384 90.5753 15.5469C90.3395 16.0526 90.0128 16.4446 89.5952 16.723C89.1776 16.9986 88.696 17.1364 88.1506 17.1364C87.7301 17.1364 87.3935 17.0668 87.1406 16.9276C86.8878 16.7855 86.6932 16.625 86.5568 16.446C86.4205 16.2642 86.3153 16.1136 86.2415 15.9943H86.1222V17H85.1506ZM86.1392 13.7273C86.1392 14.2216 86.2116 14.6577 86.3565 15.0355C86.5014 15.4105 86.7131 15.7045 86.9915 15.9176C87.2699 16.1278 87.6108 16.233 88.0142 16.233C88.4347 16.233 88.7855 16.1222 89.0668 15.9006C89.3509 15.6761 89.5639 15.375 89.706 14.9972C89.8509 14.6165 89.9233 14.1932 89.9233 13.7273C89.9233 13.267 89.8523 12.8523 89.7102 12.483C89.571 12.1108 89.3594 11.8168 89.0753 11.6009C88.794 11.3821 88.4403 11.2727 88.0142 11.2727C87.6051 11.2727 87.2614 11.3764 86.983 11.5838C86.7045 11.7884 86.4943 12.0753 86.3523 12.4446C86.2102 12.8111 86.1392 13.2386 86.1392 13.7273Z" fill="#5200FF"/>
<path d="M96.0705 16.5414C94.1917 15.3657 94.1925 12.6287 96.072 11.4541L105.414 5.61568C107.413 4.36675 110.005 5.80395 110.004 8.16058L110.001 19.8428C110 22.1994 107.407 23.6352 105.41 22.3851L96.0705 16.5414Z" fill="#5200FF"/>
<path d="M20.0285 10.5783C21.9002 11.7653 21.883 14.5022 19.9964 15.6654L10.6191 21.4476C8.61316 22.6845 6.02976 21.2317 6.0446 18.8751L6.11818 7.19315C6.13302 4.83656 8.73451 3.41645 10.7247 4.6785L20.0285 10.5783Z" fill="#5200FF"/>
<path d="M27.5 0L28.2858 2.41844H30.8287L28.7714 3.91312L29.5572 6.33156L27.5 4.83688L25.4428 6.33156L26.2286 3.91312L24.1713 2.41844H26.7142L27.5 0Z" fill="#5200FF"/>
<path d="M35.5 0L36.2858 2.41844H38.8287L36.7714 3.91312L37.5572 6.33156L35.5 4.83688L33.4428 6.33156L34.2286 3.91312L32.1713 2.41844H34.7142L35.5 0Z" fill="#5200FF"/>
<path d="M43.5 0L44.2858 2.41844H46.8287L44.7714 3.91312L45.5572 6.33156L43.5 4.83688L41.4428 6.33156L42.2286 3.91312L40.1713 2.41844H42.7142L43.5 0Z" fill="#5200FF"/>
<path d="M51.5 0L52.2858 2.41844H54.8287L52.7714 3.91312L53.5572 6.33156L51.5 4.83688L49.4428 6.33156L50.2286 3.91312L48.1713 2.41844H50.7142L51.5 0Z" fill="#5200FF"/>
<path d="M59.5 0L60.2858 2.41844H62.8287L60.7714 3.91312L61.5572 6.33156L59.5 4.83688L57.4428 6.33156L58.2286 3.91312L56.1713 2.41844H58.7142L59.5 0Z" fill="#5200FF"/>
</svg>
